<svg width="814" height="779" viewBox="0 0 814 779" fill="none" xmlns="http://www.w3.org/2000/svg">
<g id="documents">
<g clip-path="url(#clip0)">
<g id="doc-3">
<path id="Vector" d="M489.74 778.4H0V212.63L73.99 131H489.74V778.4Z" fill="#333333"/>
<path id="Vector_2" d="M223.13 311.02H48.29V351.27H223.13V311.02Z" fill="#E0E0E0"/>
<path id="Vector_3" d="M440.47 476.5H48.29V624.09H440.47V476.5Z" fill="#6C63FF"/>
</g>
<g id="doc-2">
<path id="Vector_4" d="M651.74 717.4H162V151.63L235.99 70H651.74V717.4Z" fill="#EEEEEE"/>
<path id="Vector_5" d="M448.59 161H210V201.25H448.59V161Z" fill="#E0E0E0"/>
<path id="Vector_6" d="M384.84 233H210V273.25H384.84V233Z" fill="#E0E0E0"/>
<path id="Vector_7" d="M602.47 415.51H210.29V563.1H602.47V415.51Z" fill="#7570D1"/>
<path id="Vector_8" d="M602.87 161H514V201.25H602.87V161Z" fill="#F5F5F5"/>
<path id="Vector_9" d="M602.87 233H514V273.25H602.87V233Z" fill="#F5F5F5"/>
</g>
<g id="doc-1">
<path id="Vector_10" d="M811.74 647.4H322V81.62L396 0H811.74V647.4Z" fill="white"/>
<path id="Vector_11" d="M608.41 69.88H369.82V110.13H608.41V69.88Z" fill="#E0E0E0"/>
<path id="Vector_12" d="M544.84 133H370V173.25H544.84V133Z" fill="#E0E0E0"/>
<path id="Vector_13" d="M762.48 345.5H370.3V493.09H762.48V345.5Z" fill="#8FA1FD"/>
<path id="Vector_14" d="M762.48 70.44H673.61V110.69H762.48V70.44Z" fill="#E0E0E0"/>
<path id="Vector_15" d="M762.48 133.05H673.61V173.3H762.48V133.05Z" fill="#E0E0E0"/>
<path id="Vector_16" d="M762.48 195.67H673.61V235.92H762.48V195.67Z" fill="#E0E0E0"/>
</g>
</g>
</g>
<defs>
<clipPath id="clip0">
<rect width="814" height="778.22" fill="white"/>
</clipPath>
</defs>
</svg>
